<svg width="189" height="179" viewBox="0 0 189 179" fill="none" xmlns="http://www.w3.org/2000/svg">
<circle cx="91.5" cy="90.5" r="61.5" fill="#04B6DB"/>
<path d="M110.96 68.8251C112.25 69.5479 113.201 70.7536 113.603 72.1771C114.004 73.6007 113.824 75.1254 113.102 76.4162L94.7577 109.174C94.2932 110.004 93.6488 110.719 92.8718 111.268C92.0949 111.816 91.205 112.184 90.2675 112.344C89.33 112.504 88.3686 112.452 87.4537 112.193C86.5388 111.933 85.6936 111.472 84.9801 110.843L71.0778 98.5964C69.9678 97.6183 69.2919 96.2393 69.1986 94.7628C69.1053 93.2863 69.6025 91.8332 70.5806 90.7233C71.5587 89.6133 72.9376 88.9373 74.4141 88.8441C75.8906 88.7508 77.3437 89.2479 78.4537 90.226L87.9142 98.5613L103.367 70.9671C103.725 70.3279 104.205 69.7655 104.781 69.3119C105.356 68.8583 106.015 68.5225 106.72 68.3236C107.425 68.1247 108.162 68.0666 108.89 68.1526C109.617 68.2387 110.321 68.4672 110.96 68.8251Z" fill="white"/>
<circle cx="6.5" cy="29.5" r="6.5" fill="#12D2C7"/>
<circle cx="6.5" cy="158.5" r="6.5" fill="url(#paint0_linear_211_237)"/>
<circle cx="98.5" cy="6.5" r="6.5" fill="#04B6DB"/>
<circle cx="182.5" cy="41.5" r="6.5" fill="#04B6DB"/>
<circle cx="169.5" cy="172.5" r="6.5" fill="#12D2C7"/>
<defs>
<linearGradient id="paint0_linear_211_237" x1="6.5" y1="152" x2="6.5" y2="165" gradientUnits="userSpaceOnUse">
<stop stop-color="#04B6DB"/>
<stop offset="1" stop-color="#12D2C7"/>
</linearGradient>
</defs>
</svg>
