<svg width="28" height="29" viewBox="0 0 28 29" fill="none" xmlns="http://www.w3.org/2000/svg">
<path d="M25.4394 12.0927H24.4997V12.0443H13.9997V16.7109H20.5931C19.6312 19.4275 17.0464 21.3776 13.9997 21.3776C10.1339 21.3776 6.99967 18.2434 6.99967 14.3776C6.99967 10.5119 10.1339 7.3776 13.9997 7.3776C15.7841 7.3776 17.4075 8.05077 18.6436 9.15035L21.9435 5.85044C19.8598 3.90852 17.0727 2.71094 13.9997 2.71094C7.55676 2.71094 2.33301 7.93469 2.33301 14.3776C2.33301 20.8205 7.55676 26.0443 13.9997 26.0443C20.4426 26.0443 25.6663 20.8205 25.6663 14.3776C25.6663 13.5954 25.5858 12.8318 25.4394 12.0927Z" fill="#FFC107"/>
<path d="M3.67871 8.94735L7.51179 11.7584C8.54896 9.1906 11.0608 7.3776 14.0002 7.3776C15.7846 7.3776 17.408 8.05077 18.6441 9.15035L21.944 5.85044C19.8604 3.90852 17.0732 2.71094 14.0002 2.71094C9.51904 2.71094 5.63288 5.24085 3.67871 8.94735Z" fill="#FF3D00"/>
<path d="M13.9995 26.0443C17.013 26.0443 19.7512 24.891 21.8214 23.0156L18.2106 19.9601C16.9999 20.8808 15.5205 21.3788 13.9995 21.3776C10.965 21.3776 8.38845 19.4427 7.41778 16.7424L3.61328 19.6737C5.54411 23.4519 9.46528 26.0443 13.9995 26.0443Z" fill="#4CAF50"/>
<path d="M25.4398 12.0926H24.5V12.0442H14V16.7109H20.5934C20.1333 18.0038 19.3045 19.1335 18.2093 19.9606L18.2111 19.9594L21.8219 23.0149C21.5664 23.2471 25.6667 20.2109 25.6667 14.3775C25.6667 13.5953 25.5862 12.8317 25.4398 12.0926Z" fill="#1976D2"/>
</svg>
